<?xml version="1.0" encoding="UTF-8" standalone="no"?>
<!-- Uploaded to: SVG Repo, www.svgrepo.com, Transformed by: SVG Repo Mixer Tools -->

<svg
   width="14.28563"
   height="14.285592"
   viewBox="0 0 20.000025 19.999972"
   fill="none"
   version="1.1"
   id="svg7"
   sodipodi:docname="star.svg"
   inkscape:export-filename="\\wsl.localhost\ElysianFields\home\wych\git\projects\wychwit.ch\_src\assets\star.png"
   inkscape:export-xdpi="4.8000002"
   inkscape:export-ydpi="4.8000002"
   inkscape:version="1.1.2 (0a00cf5339, 2022-02-04, custom)"
   xmlns:inkscape="http://www.inkscape.org/namespaces/inkscape"
   xmlns:sodipodi="http://sodipodi.sourceforge.net/DTD/sodipodi-0.dtd"
   xmlns="http://www.w3.org/2000/svg"
   xmlns:svg="http://www.w3.org/2000/svg">
  <defs
     id="defs11" />
  <sodipodi:namedview
     id="namedview9"
     pagecolor="#ffffff"
     bordercolor="#666666"
     borderopacity="1.0"
     inkscape:pageshadow="2"
     inkscape:pageopacity="0.0"
     inkscape:pagecheckerboard="0"
     showgrid="false"
     inkscape:zoom="0.9975"
     inkscape:cx="396.49123"
     inkscape:cy="245.11278"
     inkscape:window-width="1920"
     inkscape:window-height="991"
     inkscape:window-x="-9"
     inkscape:window-y="-9"
     inkscape:window-maximized="1"
     inkscape:current-layer="svg7"
     scale-x="1.40001"
     fit-margin-top="0"
     fit-margin-left="0"
     fit-margin-right="0"
     fit-margin-bottom="0" />
  <g
     id="SVGRepo_bgCarrier"
     stroke-width="0"
     transform="translate(-1.9999981,-2)" />
  <g
     id="SVGRepo_tracerCarrier"
     stroke-linecap="round"
     stroke-linejoin="round"
     transform="translate(-1.9999981,-2)" />
  <g
     id="SVGRepo_iconCarrier"
     transform="translate(-1.9999981,-2)">
    <path
       d="M 9.15316,5.40838 C 10.4198,3.13613 11.0531,2 12,2 c 0.9469,0 1.5802,1.13612 2.8468,3.40837 l 0.3277,0.58786 c 0.36,0.6457 0.5399,0.96856 0.8206,1.18158 0.2806,0.21302 0.63,0.29209 1.329,0.45024 l 0.6364,0.14398 c 2.4596,0.55653 3.6895,0.83479 3.9821,1.7757 0.2926,0.94087 -0.5458,1.92137 -2.2227,3.88217 l -0.4338,0.5073 c -0.4765,0.5572 -0.7148,0.8358 -0.822,1.1805 -0.1071,0.3447 -0.0711,0.7164 9e-4,1.4599 l 0.0656,0.6768 c 0.2535,2.6162 0.3803,3.9243 -0.3857,4.5058 -0.7661,0.5815 -1.9176,0.0513 -4.2206,-1.009 L 13.3285,20.4768 C 12.6741,20.1755 12.3469,20.0248 12,20.0248 c -0.3469,0 -0.6741,0.1507 -1.3285,0.452 l -0.5958,0.2744 C 7.77268,21.8115 6.62118,22.3417 5.85515,21.7602 5.08912,21.1787 5.21588,19.8706 5.4694,17.2544 L 5.53498,16.5776 C 5.60703,15.8341 5.64305,15.4624 5.53586,15.1177 5.42868,14.773 5.19043,14.4944 4.71392,13.9372 L 4.2801,13.4299 C 2.60325,11.4691 1.76482,10.4886 2.05742,9.54773 2.35002,8.60682 3.57986,8.32856 6.03954,7.77203 L 6.67589,7.62805 C 7.37485,7.4699 7.72433,7.39083 8.00494,7.17781 8.28555,6.96479 8.46553,6.64194 8.82547,5.99623 Z"
       fill="#b7afda"
       id="path4" />
  </g>
</svg>
